<?xml version="1.0" encoding="UTF-8" standalone="no"?>
<svg
   width="225.92206"
   height="122.20586"
   version="1.1"
   id="svg31"
   xmlns="http://www.w3.org/2000/svg"
   xmlns:svg="http://www.w3.org/2000/svg">
  <defs
     id="defs31" />
  <path
     id="rect1"
     style="fill:#ffffff"
     d="M 11.294409,0 V 112.00586 H 22.739721 V 0.00585938 h 2 V 112.00586 h 2 V 0.00585938 h 2 V 100.00586 h 6 V 0.00585938 h 4 V 100.00586 h 2 V 0.00585938 h 2 V 100.00586 h 8 V 0.00585938 h 2 V 100.00586 h 2 V 0.00585938 h 2 V 100.00586 h 2 V 0.00585938 h 2 V 100.00586 h 4 V 0.00585938 h 6 V 100.00586 h 4 V 0.00585938 h 4 V 100.00586 h 4 V 0.00585938 h 2 V 100.00586 h 2 V 0.00585938 h 2 V 100.00586 h 2 V 0.00585938 h 8 V 100.00586 h 7.999999 V 0.00585938 h 2 V 100.00586 h 2 V 0.00585938 h 2 V 100.00586 h 2 V 0.00585938 h 2 V 112.00586 h 2 V 0.00585938 h 2 V 100.00586 h 2 V 0.00585938 h 2 V 100.00586 h 2 V 0.00585938 h 2 V 100.00586 h 8 V 0.00585938 h 6 V 100.00586 h 2 V 0.00585938 h 2 V 100.00586 h 4 V 0.00585938 h 6 V 100.00586 h 4 V 0.00585938 h 2 V 100.00586 h 2 V 0.00585938 h 6 V 100.00586 h 4 V 0.00585938 h 2 V 100.00586 h 2 V 0.00585938 h 6 V 100.00586 h 4 V 0.00585938 h 2 V 100.00586 h 2 V 0.00585938 h 2 V 100.00586 h 6 V 0.00585938 h 2 V 100.00586 h 4 V 0.00585938 h 2 V 112.00586 h 2 V 0.00585938 h 2 V 112.00586 h 0.002 V 0 Z" />
  <text
     style="font-style:normal;font-variant:normal;font-weight:normal;font-stretch:normal;font-size:20px;line-height:normal;font-family:Roboto;fill:#ffffff;fill-opacity:1"
     text-anchor="start"
     x="-1.26"
     y="122.00586"
     id="text1">5</text>
  <text
     style="font-style:normal;font-variant:normal;font-weight:normal;font-stretch:normal;font-size:20px;line-height:normal;font-family:Roboto;fill:#ffffff;fill-opacity:1"
     text-anchor="middle"
     x="70.739998"
     y="122.00586"
     id="text15">060166</text>
  <text
     style="font-style:normal;font-variant:normal;font-weight:normal;font-stretch:normal;font-size:20px;line-height:normal;font-family:Roboto;fill:#ffffff;fill-opacity:1"
     text-anchor="middle"
     x="164.74001"
     y="122.00586"
     id="text29">690007</text>
  <rect
     style="fill:#ffffff;fill-opacity:1"
     id="rect2"
     width="13.180389"
     height="112.00586"
     x="212.74167"
     y="0" />
</svg>
