<?xml version="1.0" encoding="UTF-8" standalone="no"?>
<svg
   role="img"
   viewBox="0 0 576 576"
   version="1.1"
   id="svg1"
   sodipodi:docname="ce.svg"
   width="576"
   height="576"
   xmlns:inkscape="http://www.inkscape.org/namespaces/inkscape"
   xmlns:sodipodi="http://sodipodi.sourceforge.net/DTD/sodipodi-0.dtd"
   xmlns="http://www.w3.org/2000/svg"
   xmlns:svg="http://www.w3.org/2000/svg">
  <defs
     id="defs1" />
  <sodipodi:namedview
     id="namedview1"
     pagecolor="#505050"
     bordercolor="#eeeeee"
     borderopacity="1"
     inkscape:showpageshadow="0"
     inkscape:pageopacity="0"
     inkscape:pagecheckerboard="0"
     inkscape:deskcolor="#505050">
    <inkscape:page
       x="0"
       y="0"
       width="576"
       height="576"
       id="page2"
       margin="0"
       bleed="0" />
  </sodipodi:namedview>
  <title
     id="title1">CE</title>
  <path
     d="M 24,20.53 V 17.94 A 6,6 0 0 1 23.143,18 6,6 0 0 1 17.281,13.286 h 5.005 V 10.715 H 17.28 A 6,6 0 0 1 24,6.06 V 3.47 A 9,9 0 0 0 23.143,3.428 8.571,8.571 0 1 0 24,20.528 M 0,12 a 8.57,8.57 0 0 0 9.486,8.524 V 17.93 Q 9.038,18 8.571,18 A 6,6 0 1 1 9.486,6.07 V 3.477 A 9,9 0 0 0 8.571,3.429 8.57,8.57 0 0 0 0,12"
     id="path1"
     style="fill:#ffffff" />
</svg>
