<?xml version="1.0" encoding="UTF-8" standalone="no"?>
<svg
   role="img"
   viewBox="0 0 576 576"
   version="1.1"
   id="svg1"
   width="576"
   height="576"
   xmlns="http://www.w3.org/2000/svg"
   xmlns:svg="http://www.w3.org/2000/svg">
  <defs
     id="defs1" />
  <title
     id="title1">CE</title>
  <path
     d="M 573.91304,412.38886 V 350.45408 A 143.47826,143.47826 0 0 1 553.41957,351.88886 143.47826,143.47826 0 0 1 413.24131,239.16278 H 532.92609 V 177.68234 H 413.21739 A 143.47826,143.47826 0 0 1 573.91304,66.367129 V 4.4323478 A 215.21739,215.21739 0 0 0 553.41957,3.428 204.95869,204.95869 0 1 0 573.91304,412.34103 M 1.2795229e-5,208.4106 A 204.93478,204.93478 0 0 0 226.83914,412.24538 v -62.03043 q -10.71305,1.67391 -21.88044,1.67391 A 143.47826,143.47826 0 1 1 226.83914,66.606259 V 4.5997391 A 215.21739,215.21739 0 0 0 204.9587,3.451913 204.93478,204.93478 0 0 0 1.2795229e-5,208.4106"
     id="path1"
     style="fill:#ffffff;stroke-width:23.913" />
</svg>
