<?xml version="1.0" encoding="UTF-8" standalone="no"?>
<svg
   role="img"
   viewBox="0 0 573.91302 409.99136"
   version="1.1"
   id="svg1"
   width="573.91302"
   height="409.99136"
   xmlns="http://www.w3.org/2000/svg"
   xmlns:svg="http://www.w3.org/2000/svg">
  <defs
     id="defs1" />
  <title
     id="title1">CE</title>
  <path
     d="M 573.91304,408.96086 V 347.02608 A 143.47826,143.47826 0 0 1 553.41957,348.46086 143.47826,143.47826 0 0 1 413.24131,235.73478 H 532.92609 V 174.25434 H 413.21739 A 143.47826,143.47826 0 0 1 573.91304,62.939129 V 1.0043478 A 215.21739,215.21739 0 0 0 553.41957,0 204.95869,204.95869 0 1 0 573.91304,408.91303 M 1.3353637e-5,204.9826 A 204.93478,204.93478 0 0 0 226.83914,408.81738 v -62.03043 q -10.71305,1.67391 -21.88044,1.67391 A 143.47826,143.47826 0 1 1 226.83914,63.178259 V 1.1717391 A 215.21739,215.21739 0 0 0 204.9587,0.023913 204.93478,204.93478 0 0 0 1.3353637e-5,204.9826"
     id="path1"
     style="fill:#ffffff;stroke-width:23.913" />
</svg>
