<?xml version="1.0" encoding="UTF-8" standalone="no"?>
<svg
   role="img"
   viewBox="0 0 459.56042 571.82611"
   version="1.1"
   id="svg1"
   width="459.56042"
   height="571.82611"
   xmlns="http://www.w3.org/2000/svg"
   xmlns:svg="http://www.w3.org/2000/svg">
  <defs
     id="defs1" />
  <title
     id="title1">Debian</title>
  <path
     d="m 274.57469,302.23391 c -9.53043,0 1.90609,4.76522 14.31948,6.6713 3.33565,-2.3826 6.43304,-5.24173 9.29217,-7.8626 a 71.502087,71.502087 0 0 1 -23.58782,1.1913 m 50.98782,-12.62782 c 5.48,-7.86261 9.53044,-16.44 11.19827,-25.25565 -1.42958,6.43304 -4.76523,11.91304 -7.86262,17.39304 -17.86956,11.19826 -1.66782,-6.43304 0,-13.34261 -19.06087,24.06434 -2.62087,14.29565 -3.33565,21.20522 m 18.60818,-48.84348 c 1.1913,-17.17861 -3.33565,-11.93687 -4.76523,-5.26557 1.66783,0.95305 3.0974,11.91305 4.76523,5.24175 M 238.83556,7.386087 c 4.76522,0.9530434 10.72173,1.667826 10.00696,2.85913 5.48,-1.191304 6.6713,-2.3826083 -10.24523,-2.85913 m 10.24523,2.85913 -3.57391,0.714783 3.33565,-0.238261 V 10.245217 M 406.64269,247.17183 c 0.47652,15.24869 -4.76522,22.63478 -9.05391,35.73913 l -8.33914,4.31252 c -6.6713,12.86608 0.71479,8.33913 -4.05043,18.58435 -10.48348,9.29217 -31.92695,29.06782 -38.59826,30.99773 -4.78904,0 3.33566,-5.95652 4.52696,-8.10086 -14.08122,9.53043 -11.46035,14.29565 -32.66557,20.25217 l -0.71478,-1.42957 c -52.91774,24.77914 -126.34974,-24.3026 -125.15844,-91.53982 -0.71478,4.05043 -1.66783,3.09739 -2.85913,4.76522 a 84.606435,84.630261 0 0 1 47.676,-83.41514 80.079479,80.103304 0 0 1 88.91896,11.43653 79.602956,79.626783 0 0 0 -64.83078,-30.97392 c -28.11479,0.23827 -54.3473,18.10783 -63.16296,37.40696 -14.29565,9.05391 -15.96348,35.02435 -22.15826,39.57513 -8.60122,61.97165 15.72522,88.6807 56.70608,120.13113 6.43305,4.52696 1.90609,5.00348 2.85914,8.33913 a 112.03026,112.03026 0 0 1 -36.45391,-27.63826 c 5.48,7.86261 11.19826,15.72522 19.06086,21.68174 -13.10434,-4.2887 -30.25913,-30.97391 -35.2626,-32.16521 22.15826,39.5513 90.0626,69.596 125.34904,54.8 a 147.79321,147.79321 0 0 1 -55.51478,-6.67131 c -7.86261,-3.81218 -18.34609,-12.15131 -16.67826,-13.58087 A 138.23896,138.26279 0 0 0 376.86008,339.6647 c 10.48348,-8.33914 22.15826,-22.39653 25.49391,-22.63479 -4.76521,7.62435 0.95304,3.81218 -2.85912,10.48348 10.48347,-17.15478 -4.76523,-7.14783 10.96,-29.54435 l 5.71825,7.86261 c -2.14434,-14.29565 17.63131,-31.47426 15.72522,-53.89461 4.52695,-7.14783 4.76522,7.14783 0,23.11131 6.90957,-17.63131 1.90609,-20.25218 3.57392,-34.78609 1.90608,4.76522 4.28869,10.00695 5.48,15.01044 -4.2887,-16.67826 4.76521,-28.59131 6.6713,-38.12174 -2.14435,-1.19131 -6.6713,7.14783 -7.62435,-12.62783 0,-8.81565 2.38261,-4.76522 3.33566,-6.6713 -1.90609,-1.19131 -6.19479,-7.62435 -9.05392,-20.51427 1.90608,-3.09739 5.24174,7.86261 8.10087,8.10088 -1.90609,-10.00696 -4.76521,-17.86957 -4.76521,-25.73218 -8.10088,-16.20174 -2.85914,2.38261 -9.53044,-7.14782 -8.10088,-25.99427 7.14782,-5.95653 8.10086,-17.63131 12.86609,18.34608 20.01392,46.69913 23.3734,58.61217 -2.38261,-14.29565 -6.67131,-28.5913 -11.67479,-41.93391 3.81218,1.66782 -6.19477,-29.56818 5.00348,-8.81565 A 186.39148,186.4153 0 0 0 365.63799,38.121739 c 4.2887,4.050435 10.00696,9.292174 7.86262,10.006957 -17.86958,-10.72174 -14.77218,-11.436522 -17.39305,-15.963479 -14.53392,-5.956521 -15.48695,0.476522 -25.25565,0 -27.63827,-14.772173 -32.88,-13.104347 -58.1833,-22.6347822 l 1.1913,5.4800002 c -18.34609,-5.956522 -21.44348,2.382609 -41.21913,0 -1.19131,-0.953044 6.43304,-3.335652 12.62783,-4.288696 -17.65514,2.382609 -16.70209,-3.335652 -34.09514,0.714782 4.05044,-3.0973906 8.5774,-5.0034775 13.10435,-7.6243471 C 209.98217,4.7652174 189.96826,12.151304 196.16303,5.48 c -23.564,10.721739 -65.33112,25.493913 -88.68069,47.413913 l -0.69096,-5.241739 C 96.069646,60.518261 60.092254,86.036 57.233124,102.71426 l -3.121217,0.71478 c -5.48,9.53044 -9.053914,20.25217 -13.58087,30.0447 -7.147826,12.38956 -10.721739,4.76522 -9.530435,6.6713 -14.295651,29.06783 -21.4434778,53.63252 -27.6382604,73.90852 4.2886956,6.43305 0,39.31305 1.6678261,65.76 -7.1478261,130.16192 91.4921743,256.74992 199.2575623,286.056 15.96348,5.48 39.31305,5.48 59.32696,5.95653 -23.58782,-6.6713 -26.68522,-3.57392 -49.55826,-11.67479 -16.67826,-7.62434 -20.25217,-16.67826 -31.92696,-26.92347 l 4.76522,8.33913 C 163.75956,533.46609 173.31382,531.56 154.46738,525.60348 l 5.00349,-6.43304 c -7.38609,-0.71479 -19.77566,-12.62783 -23.11131,-19.29914 l -8.10087,0.23826 c -9.7687,-11.93686 -15.01043,-20.75252 -14.53391,-27.66208 l -2.6447,4.76522 c -3.09739,-5.00349 -36.215652,-45.2934 -19.060869,-36.00122 -3.097392,-2.85913 -7.386087,-4.76522 -11.913043,-13.10435 l 3.335651,-4.05043 c -8.33913,-10.48349 -15.248695,-24.30261 -14.772173,-28.59131 4.765217,5.71826 7.624347,7.14782 10.721738,7.86261 -20.966956,-51.75026 -22.15826,-2.85913 -38.145565,-52.46504 l 3.573914,-0.47652 c -2.382609,-3.81218 -4.288696,-8.10088 -6.194782,-12.15131 l 1.429565,-14.29565 C 25.044081,306.30817 35.765819,250.03096 37.910168,219.05704 39.577993,206.19096 50.537993,192.84835 58.877124,171.85756 l -5.003478,-0.95304 C 63.404081,153.988 109.65052,102.476 131.09399,105.1207 c 10.24522,-13.104352 -2.14435,0 -4.2887,-3.33566 22.87305,-23.611649 30.02088,-16.678257 45.2934,-20.966953 16.67826,-9.554261 -14.29566,3.812174 -6.43305,-3.597739 28.59131,-7.147827 20.25218,-16.678261 57.68297,-20.252174 3.81217,2.382609 -9.29218,3.335652 -12.38958,6.194782 23.82609,-11.674782 75.076,-8.815652 108.69461,6.433044 38.83653,18.346087 82.46209,71.74035 84.12992,122.27548 l 1.90608,0.47652 c -0.95303,20.25217 3.09739,43.3873 -4.05043,64.59252 l 4.76522,-10.00696 m -235.23496,68.42853 -1.1913,6.6713 c 6.19478,8.33913 11.19826,17.39305 19.06086,24.06435 -5.71825,-11.19826 -10.00695,-15.72522 -17.86956,-30.97391 m 14.77217,-0.47653 c -3.33565,-3.57391 -5.24173,-8.10086 -7.38608,-12.38956 1.90608,7.62435 6.19478,14.29565 10.24522,20.96696 l -2.85914,-8.5774 m 260.77653,-56.75374 -1.66783,3.57392 c -2.38261,18.10782 -8.10087,36.00122 -16.44,52.70331 9.53044,-17.39305 15.48695,-36.716 17.86957,-56.27723 M 240.50338,2.8591304 C 246.93643,0.47652174 256.22861,1.6678261 263.13817,0 c -8.81565,0.71478261 -17.6313,1.1913044 -26.2087,2.3826087 l 3.57391,0.4765217 M 15.489819,122.51374 c 1.667827,13.58087 -10.2452166,19.06087 2.62087,10.00696 7.147827,-15.72522 -2.62087,-4.2887 -2.382608,-10.00696 M 0.479385,185.91496 C 3.3385155,176.62279 4.0532982,171.14279 5.2446024,165.90104 -3.094528,176.38452 1.1941677,178.52887 0.479385,185.6767"
     id="path1"
     style="fill:#ffffff;stroke-width:23.8261" />
</svg>
