<?xml version="1.0" encoding="UTF-8" standalone="no"?>
<svg
   role="img"
   viewBox="0 0 576 576"
   version="1.1"
   id="svg1"
   width="576"
   height="576"
   xmlns="http://www.w3.org/2000/svg"
   xmlns:svg="http://www.w3.org/2000/svg">
  <defs
     id="defs1" />
  <title
     id="title1">Debian</title>
  <path
     d="m 13.88,12.685 c -0.4,0 0.08,0.2 0.601,0.28 0.14,-0.1 0.27,-0.22 0.39,-0.33 a 3.001,3.001 0 0 1 -0.99,0.05 m 2.14,-0.53 c 0.23,-0.33 0.4,-0.69 0.47,-1.06 -0.06,0.27 -0.2,0.5 -0.33,0.73 -0.75,0.47 -0.07,-0.27 0,-0.56 -0.8,1.01 -0.11,0.6 -0.14,0.89 m 0.781,-2.05 c 0.05,-0.721 -0.14,-0.501 -0.2,-0.221 0.07,0.04 0.13,0.5 0.2,0.22 M 12.38,0.31 c 0.2,0.04 0.45,0.07 0.42,0.12 0.23,-0.05 0.28,-0.1 -0.43,-0.12 M 12.8,0.43 12.65,0.46 12.79,0.45 V 0.43 m 6.633,9.944 c 0.02,0.64 -0.2,0.95 -0.38,1.5 l -0.35,0.181 c -0.28,0.54 0.03,0.35 -0.17,0.78 -0.44,0.39 -1.34,1.22 -1.62,1.301 -0.201,0 0.14,-0.25 0.19,-0.34 -0.591,0.4 -0.481,0.6 -1.371,0.85 l -0.03,-0.06 c -2.221,1.04 -5.303,-1.02 -5.253,-3.842 -0.03,0.17 -0.07,0.13 -0.12,0.2 a 3.551,3.552 0 0 1 2.001,-3.501 3.361,3.362 0 0 1 3.732,0.48 3.341,3.342 0 0 0 -2.721,-1.3 c -1.18,0.01 -2.281,0.76 -2.651,1.57 -0.6,0.38 -0.67,1.47 -0.93,1.661 -0.361,2.601 0.66,3.722 2.38,5.042 0.27,0.19 0.08,0.21 0.12,0.35 a 4.702,4.702 0 0 1 -1.53,-1.16 c 0.23,0.33 0.47,0.66 0.8,0.91 -0.55,-0.18 -1.27,-1.3 -1.48,-1.35 0.93,1.66 3.78,2.921 5.261,2.3 a 6.203,6.203 0 0 1 -2.33,-0.28 c -0.33,-0.16 -0.77,-0.51 -0.7,-0.57 a 5.802,5.803 0 0 0 5.902,-0.84 c 0.44,-0.35 0.93,-0.94 1.07,-0.95 -0.2,0.32 0.04,0.16 -0.12,0.44 0.44,-0.72 -0.2,-0.3 0.46,-1.24 l 0.24,0.33 c -0.09,-0.6 0.74,-1.321 0.66,-2.262 0.19,-0.3 0.2,0.3 0,0.97 0.29,-0.74 0.08,-0.85 0.15,-1.46 0.08,0.2 0.18,0.42 0.23,0.63 -0.18,-0.7 0.2,-1.2 0.28,-1.6 -0.09,-0.05 -0.28,0.3 -0.32,-0.53 0,-0.37 0.1,-0.2 0.14,-0.28 -0.08,-0.05 -0.26,-0.32 -0.38,-0.861 0.08,-0.13 0.22,0.33 0.34,0.34 -0.08,-0.42 -0.2,-0.75 -0.2,-1.08 -0.34,-0.68 -0.12,0.1 -0.4,-0.3 -0.34,-1.091 0.3,-0.25 0.34,-0.74 0.54,0.77 0.84,1.96 0.981,2.46 -0.1,-0.6 -0.28,-1.2 -0.49,-1.76 0.16,0.07 -0.26,-1.241 0.21,-0.37 A 7.823,7.824 0 0 0 17.702,1.6 c 0.18,0.17 0.42,0.39 0.33,0.42 -0.75,-0.45 -0.62,-0.48 -0.73,-0.67 -0.61,-0.25 -0.65,0.02 -1.06,0 C 15.082,0.73 14.862,0.8 13.8,0.4 l 0.05,0.23 c -0.77,-0.25 -0.9,0.1 -1.73,0 -0.05,-0.04 0.27,-0.14 0.53,-0.18 -0.741,0.1 -0.701,-0.14 -1.431,0.03 0.17,-0.13 0.36,-0.21 0.55,-0.32 -0.6,0.04 -1.44,0.35 -1.18,0.07 C 9.6,0.68 7.847,1.3 6.867,2.22 L 6.838,2 c -0.45,0.54 -1.96,1.611 -2.08,2.311 l -0.131,0.03 c -0.23,0.4 -0.38,0.85 -0.57,1.261 -0.3,0.52 -0.45,0.2 -0.4,0.28 -0.6,1.22 -0.9,2.251 -1.16,3.102 0.18,0.27 0,1.65 0.07,2.76 -0.3,5.463 3.84,10.776 8.363,12.006 0.67,0.23 1.65,0.23 2.49,0.25 -0.99,-0.28 -1.12,-0.15 -2.08,-0.49 -0.7,-0.32 -0.85,-0.7 -1.34,-1.13 l 0.2,0.35 C 9.229,22.39 9.63,22.31 8.839,22.06 l 0.21,-0.27 c -0.31,-0.03 -0.83,-0.53 -0.97,-0.81 l -0.34,0.01 c -0.41,-0.501 -0.63,-0.871 -0.61,-1.161 l -0.111,0.2 c -0.13,-0.21 -1.52,-1.901 -0.8,-1.511 -0.13,-0.12 -0.31,-0.2 -0.5,-0.55 l 0.14,-0.17 c -0.35,-0.44 -0.64,-1.02 -0.62,-1.2 0.2,0.24 0.32,0.3 0.45,0.33 -0.88,-2.172 -0.93,-0.12 -1.601,-2.202 l 0.15,-0.02 c -0.1,-0.16 -0.18,-0.34 -0.26,-0.51 l 0.06,-0.6 c -0.63,-0.74 -0.18,-3.102 -0.09,-4.402 0.07,-0.54 0.53,-1.1 0.88,-1.981 l -0.21,-0.04 c 0.4,-0.71 2.341,-2.872 3.241,-2.761 0.43,-0.55 -0.09,0 -0.18,-0.14 0.96,-0.991 1.26,-0.7 1.901,-0.88 0.7,-0.401 -0.6,0.16 -0.27,-0.151 1.2,-0.3 0.85,-0.7 2.421,-0.85 0.16,0.1 -0.39,0.14 -0.52,0.26 1,-0.49 3.151,-0.37 4.562,0.27 1.63,0.77 3.461,3.011 3.531,5.132 l 0.08,0.02 c -0.04,0.85 0.13,1.821 -0.17,2.711 l 0.2,-0.42 m -9.873,2.872 -0.05,0.28 c 0.26,0.35 0.47,0.73 0.8,1.01 -0.24,-0.47 -0.42,-0.66 -0.75,-1.3 m 0.62,-0.02 c -0.14,-0.15 -0.22,-0.34 -0.31,-0.52 0.08,0.32 0.26,0.6 0.43,0.88 l -0.12,-0.36 m 10.945,-2.382 -0.07,0.15 c -0.1,0.76 -0.34,1.511 -0.69,2.212 0.4,-0.73 0.65,-1.541 0.75,-2.362 M 12.45,0.12 C 12.72,0.02 13.11,0.07 13.4,0 13.03,0.03 12.66,0.05 12.3,0.1 l 0.15,0.02 M 3.006,5.142 c 0.07,0.57 -0.43,0.8 0.11,0.42 0.3,-0.66 -0.11,-0.18 -0.1,-0.42 m -0.64,2.661 c 0.12,-0.39 0.15,-0.62 0.2,-0.84 -0.35,0.44 -0.17,0.53 -0.2,0.83"
     id="path1"
     style="fill:#ffffff" />
</svg>
