<?xml version="1.0" encoding="UTF-8" standalone="no"?>
<svg
   version="1.1"
   width="1000"
   height="900"
   id="svg1"
   xmlns="http://www.w3.org/2000/svg"
   xmlns:svg="http://www.w3.org/2000/svg">
  <defs
     id="defs1" />
  <path
     d="M 500,0 A 500,450 0 0 0 0,450 500,450 0 0 0 500,900 500,450 0 0 0 895,726 H 820 A 423,423 0 0 1 500,873 423,423 0 0 1 209,757 85,85 0 0 1 183,696 V 476 a 13,13 0 0 1 13,-13 h 804 V 450 A 500,450 0 0 0 500,0 Z m 0,27 a 423,423 0 0 1 291,116 85,85 0 0 1 26,61 v 221 a 13,13 0 0 1 -13,13 H 196 A 13,13 0 0 1 183,425 V 204 A 85,85 0 0 1 209,143 423,423 0 0 1 500,27 Z"
     id="path1"
     style="fill:#ffffff" />
</svg>
