<?xml version="1.0" encoding="UTF-8" standalone="no"?>
<svg
   role="img"
   viewBox="0 0 576 576"
   version="1.1"
   id="svg1"
   width="576"
   height="576"
   xmlns="http://www.w3.org/2000/svg"
   xmlns:svg="http://www.w3.org/2000/svg">
  <defs
     id="defs1" />
  <title
     id="title1">KDE</title>
  <path
     d="M 317.66465,0 222.05417,9.1513911 V 402.87681 l 94.6043,-14.23017 V 220.78329 L 443.81969,406.97338 543.52673,375.42264 413.29908,196.34765 544.55685,27.454174 442.81351,4.0726086 316.68243,172.96608 Z M 100.93,95.945867 a 4.8631738,4.8631738 0 0 0 -2.946653,1.413435 L 60.467435,134.87522 a 4.8631738,4.8631738 0 0 0 -0.718696,5.94121 L 103.685,213.21304 A 187.81913,187.81913 0 0 0 85.190565,255.35256 L 4.5289583,272.12213 a 4.8631738,4.8631738 0 0 0 -3.8809564,4.76734 v 53.0637 c 0,2.22795 1.5332174,4.16843 3.7132608,4.69548 l 78.2899113,19.16521 a 187.57956,187.57956 0 0 0 19.189166,48.63174 l -45.325731,69.09061 a 4.8631738,4.8631738 0 0 0 0.646826,6.08495 l 37.515912,37.53987 a 4.8871303,4.8871303 0 0 0 5.965173,0.7187 l 71.00713,-43.12174 c 13.94269,8.04939 28.98739,14.37391 44.89452,18.68608 l 16.57791,79.65544 c 0.47914,2.25191 2.44357,3.857 4.74339,3.857 h 53.0637 a 4.8392173,4.8392173 0 0 0 4.71943,-3.71327 l 19.52457,-79.82312 a 187.02856,187.02856 0 0 0 46.16421,-19.42874 l 70.00095,45.87674 c 1.91653,1.26969 4.45592,1.00617 6.08496,-0.62288 l 37.53988,-37.51591 a 4.8392173,4.8392173 0 0 0 0.71869,-5.94121 l -25.56162,-42.11557 -8.26499,2.63522 a 2.8747825,2.8747825 0 0 1 -3.23413,-1.12596 L 401.2729,378.51303 A 152.05204,152.05204 0 1 1 203.51182,170.71417 v -39.24078 c -9.60657,3.35391 -18.92565,7.42652 -27.7656,12.24178 l -0.024,-0.0479 -71.63,-46.954775 A 4.8631738,4.8631738 0 0 0 100.93,95.921901 Z"
     id="path1"
     style="fill:#ffffff;stroke-width:23.9566" />
</svg>
