<?xml version="1.0" encoding="UTF-8" standalone="no"?>
<svg
   role="img"
   viewBox="0 0 576 576"
   version="1.1"
   id="svg1"
   width="576"
   height="576"
   xmlns="http://www.w3.org/2000/svg"
   xmlns:svg="http://www.w3.org/2000/svg">
  <defs
     id="defs1" />
  <title
     id="title1">KDE</title>
  <path
     d="M 13.881,0 9.89,0.382 v 16.435 l 3.949,-0.594 V 9.216 l 5.308,7.772 4.162,-1.317 L 17.873,8.196 23.352,1.146 19.105,0.17 13.84,7.22 Z M 4.834,4.005 A 0.203,0.203 0 0 0 4.711,4.064 L 3.145,5.63 A 0.203,0.203 0 0 0 3.115,5.878 L 4.949,8.9 a 7.84,7.84 0 0 0 -0.772,1.759 l -3.367,0.7 a 0.203,0.203 0 0 0 -0.162,0.199 v 2.215 c 0,0.093 0.064,0.174 0.155,0.196 l 3.268,0.8 a 7.83,7.83 0 0 0 0.801,2.03 L 2.98,19.683 a 0.203,0.203 0 0 0 0.027,0.254 l 1.566,1.567 a 0.204,0.204 0 0 0 0.249,0.03 l 2.964,-1.8 c 0.582,0.336 1.21,0.6 1.874,0.78 l 0.692,3.325 C 10.372,23.933 10.454,24 10.55,24 h 2.215 a 0.202,0.202 0 0 0 0.197,-0.155 l 0.815,-3.332 a 7.807,7.807 0 0 0 1.927,-0.811 l 2.922,1.915 c 0.08,0.053 0.186,0.042 0.254,-0.026 l 1.567,-1.566 a 0.202,0.202 0 0 0 0.03,-0.248 l -1.067,-1.758 -0.345,0.11 A 0.12,0.12 0 0 1 18.93,18.082 L 17.371,15.8 A 6.347,6.347 0 1 1 9.116,7.126 V 5.488 C 8.715,5.628 8.326,5.798 7.957,5.999 L 7.956,5.997 4.966,4.037 A 0.203,0.203 0 0 0 4.834,4.004 Z"
     id="path1"
     style="fill:#ffffff" />
</svg>
