<?xml version="1.0" encoding="UTF-8" standalone="no"?>
<svg
   role="img"
   viewBox="0 0 570.78259 200.92484"
   version="1.1"
   id="svg1"
   width="570.78259"
   height="200.92484"
   xmlns="http://www.w3.org/2000/svg"
   xmlns:svg="http://www.w3.org/2000/svg">
  <defs
     id="defs1" />
  <title
     id="title1">ThinkPad</title>
  <path
     d="m 166.52583,2.7443692 a 16.100826,16.100826 0 0 0 -2.52096,24.9717388 16.624043,16.624043 0 0 0 25.35226,-2.449609 16.053261,16.053261 0 0 0 2.78257,-9.013608 l 0.0238,-0.02378 A 16.077043,16.077043 0 0 0 187.33563,4.7421112 16.671609,16.671609 0 0 0 166.52585,2.7443722 Z M 410.03596,12.32876 A 30.156348,30.156348 0 0 0 389.08348,4.1951082 H 354.21817 V 199.09359 h 27.30244 v -84.64231 h 7.56287 c 16.05326,0 30.20391,-16.17217 30.20391,-31.797346 l -0.0238,-50.086174 a 29.062348,29.062348 0 0 0 -9.22765,-20.239 z m -15.55383,72.584522 c 0,7.943388 -6.73048,7.943388 -12.91396,7.943388 V 26.027543 h 3.75766 c 7.15856,0 9.13252,4.708956 9.13252,16.885652 v 42.000087 z m 98.98322,114.108958 0.0238,-0.0238 h -0.0238 z M 460.55022,40.487369 c -20.16765,0 -32.72487,9.679522 -32.72487,26.232217 V 97.23267 H 453.463 V 75.019717 c 0.21404,-6.873174 -0.547,-16.838087 7.37261,-16.838087 7.30126,0 6.08835,12.034 6.08835,17.218609 0,38.979691 -39.24131,24.329611 -39.24131,54.890261 v 52.48822 c 0,11.84374 5.87431,18.14613 17.95587,18.14613 9.91735,0 14.60252,-3.35335 20.42926,-12.65235 h 1.61722 a 23.283174,23.283174 0 0 0 1.54587,10.72596 h 24.25826 V 66.790934 C 493.46535,50.642543 480.74165,40.487369 460.55022,40.487369 Z m 7.22991,132.255091 a 7.4915217,7.4915217 0 0 1 -7.53909,6.9683 7.0872174,7.0872174 0 0 1 -2.54474,-0.26161 6.8256087,6.8256087 0 0 1 -3.85278,-3.18687 6.1121304,6.1121304 0 0 1 -0.71348,-2.40204 v -40.73961 c 0.0713,-7.8007 6.82561,-12.29561 14.57874,-16.48135 h 0.0713 z M 545.5017,3.6718912 V 52.16463 h -0.64213 A 25.06687,25.06687 0 0 0 524.83461,40.201978 c -10.17896,0 -19.24013,5.874304 -19.24013,17.171043 V 182.30306 c -0.30918,13.10422 8.82335,18.598 19.24013,18.598 7.658,-0.90373 14.55496,-5.04191 18.97852,-11.3443 h 1.68857 v 9.41791 h 25.28091 V 3.6718912 Z M 545.4779,169.95989 c -0.30917,8.37148 -3.66252,9.77465 -7.75313,9.77465 -3.75765,0 -6.89695,-2.42582 -6.89695,-9.77465 V 70.833978 c 0,-6.159696 2.30691,-9.132522 6.89695,-9.132522 3.75765,0 7.44396,0.927522 7.75313,9.299 z M 0,27.953934 H 25.923043 V 198.45146 H 53.915174 V 27.953934 H 79.552826 V 3.4340652 H 0 Z m 130.89948,12.319392 a 19.977391,19.977391 0 0 0 -19.00231,11.296739 h -1.094 V 3.0773262 H 85.712522 V 198.6655 H 111.01722 V 70.524804 c 0,-4.138174 1.094,-9.013609 7.53908,-9.013609 5.82674,0 7.08722,3.924131 7.08722,9.251435 v 127.92665 h 25.37605 V 65.459108 c 0,-16.481348 -2.75879,-25.185782 -20.12009,-25.185782 z m 32.15409,1.973956 h 25.20956 V 198.8082 h -25.20956 z m 82.00243,-1.641 a 21.000043,21.000043 0 0 0 -19.0023,11.058913 h -1.04644 V 42.41376 h -25.13822 v 156.51335 h 25.06687 V 72.070673 c 0,-4.399782 0.33296,-10.226521 8.13366,-10.226521 5.82673,0 6.70669,5.232174 6.70669,10.226521 V 198.97467 h 25.39983 V 68.265456 c 0.0238,-16.481348 0.23782,-27.659174 -20.12009,-27.659174 z m 99.72048,1.878826 h -25.37605 l -14.53117,72.132652 h -2.40204 V 3.6243262 H 277.13874 V 198.99846 h 25.32848 v -82.66835 h 2.40204 l 14.79278,82.66835 h 25.94683 l -16.07704,-85.71253 z"
     id="path1"
     style="fill:#ffffff;stroke-width:23.7826" />
</svg>
