<?xml version="1.0" encoding="UTF-8" standalone="no"?>
<svg
   role="img"
   viewBox="0 0 576 576"
   version="1.1"
   id="svg1"
   width="576"
   height="576"
   xmlns="http://www.w3.org/2000/svg"
   xmlns:svg="http://www.w3.org/2000/svg">
  <defs
     id="defs1" />
  <title
     id="title1">ThinkPad</title>
  <path
     d="M 7.002,7.891 A 0.677,0.677 0 0 0 6.896,8.941 0.699,0.699 0 0 0 7.962,8.838 0.675,0.675 0 0 0 8.079,8.459 L 8.08,8.458 A 0.676,0.676 0 0 0 7.877,7.975 0.701,0.701 0 0 0 7.002,7.891 Z M 17.241,8.294 A 1.268,1.268 0 0 0 16.36,7.952 h -1.466 v 8.195 h 1.148 v -3.559 h 0.318 c 0.675,0 1.27,-0.68 1.27,-1.337 L 17.629,9.145 A 1.222,1.222 0 0 0 17.241,8.294 Z m -0.654,3.052 c 0,0.334 -0.283,0.334 -0.543,0.334 V 8.87 h 0.158 c 0.301,0 0.384,0.198 0.384,0.71 v 1.766 z m 4.162,4.798 0.001,-10e-4 H 20.749 Z M 19.365,9.478 c -0.848,0 -1.376,0.407 -1.376,1.103 v 1.283 h 1.078 V 10.93 c 0.009,-0.289 -0.023,-0.708 0.31,-0.708 0.307,0 0.256,0.506 0.256,0.724 0,1.639 -1.65,1.023 -1.65,2.308 v 2.207 c 0,0.498 0.247,0.763 0.755,0.763 0.417,0 0.614,-0.141 0.859,-0.532 h 0.068 a 0.979,0.979 0 0 0 0.065,0.451 h 1.02 V 10.584 C 20.749,9.905 20.214,9.478 19.365,9.478 Z m 0.304,5.561 a 0.315,0.315 0 0 1 -0.317,0.293 0.298,0.298 0 0 1 -0.107,-0.011 0.287,0.287 0 0 1 -0.162,-0.134 0.257,0.257 0 0 1 -0.03,-0.101 v -1.713 c 0.003,-0.328 0.287,-0.517 0.613,-0.693 h 0.003 z M 22.937,7.93 V 9.969 H 22.91 A 1.054,1.054 0 0 0 22.068,9.466 c -0.428,0 -0.809,0.247 -0.809,0.722 v 5.253 c -0.013,0.551 0.371,0.782 0.809,0.782 0.322,-0.038 0.612,-0.212 0.798,-0.477 h 0.071 v 0.396 H 24 V 7.93 Z m -0.001,6.992 c -0.013,0.352 -0.154,0.411 -0.326,0.411 -0.158,0 -0.29,-0.102 -0.29,-0.411 v -4.168 c 0,-0.259 0.097,-0.384 0.29,-0.384 0.158,0 0.313,0.039 0.326,0.391 z M 0,8.951 H 1.09 V 16.12 H 2.267 V 8.951 H 3.345 V 7.92 H 0 Z M 5.504,9.469 A 0.84,0.84 0 0 0 4.705,9.944 H 4.659 V 7.905 H 3.604 v 8.224 h 1.064 v -5.388 c 0,-0.174 0.046,-0.379 0.317,-0.379 0.245,0 0.298,0.165 0.298,0.389 V 16.13 H 6.35 V 10.528 C 6.35,9.835 6.234,9.469 5.504,9.469 Z m 1.352,0.083 h 1.06 v 6.583 H 6.856 Z M 10.304,9.483 A 0.883,0.883 0 0 0 9.505,9.948 H 9.461 V 9.559 H 8.404 v 6.581 h 1.054 v -5.334 c 0,-0.185 0.014,-0.43 0.342,-0.43 0.245,0 0.282,0.22 0.282,0.43 v 5.336 H 11.15 V 10.646 C 11.151,9.953 11.16,9.483 10.304,9.483 Z m 4.193,0.079 H 13.43 l -0.611,3.033 H 12.718 V 7.928 h -1.065 v 8.215 h 1.065 v -3.476 h 0.101 l 0.622,3.476 h 1.091 l -0.676,-3.604 z"
     id="path1"
     style="fill:#ffffff" />
</svg>
